<svg width="154" height="20" viewBox="0 0 154 20" fill="none" xmlns="http://www.w3.org/2000/svg">
<path d="M108.047 19.9155H144.027C145.334 19.9155 146.627 19.6582 147.835 19.1582C149.042 18.6582 150.138 17.9253 151.062 17.0014C151.986 16.0776 152.719 14.9808 153.219 13.7737C153.719 12.5666 153.976 11.2728 153.976 9.96622C153.979 8.65823 153.723 7.36264 153.224 6.15359C152.725 4.94453 151.992 3.84573 151.068 2.92006C150.144 1.99439 149.047 1.26002 147.838 0.75896C146.63 0.257904 145.335 -1.88513e-06 144.027 0L108.047 0C106.739 -1.88513e-06 105.444 0.257904 104.236 0.75896C103.028 1.26002 101.93 1.99439 101.006 2.92006C100.082 3.84573 99.3495 4.94453 98.8505 6.15359C98.3515 7.36264 98.0958 8.65823 98.098 9.96622C98.098 12.6049 99.1462 15.1356 101.012 17.0014C102.878 18.8673 105.409 19.9155 108.047 19.9155ZM5.71062 19.9437H10.1025V3.8964H15.7894V0H0.0236816V3.88513H5.71062V19.9437ZM21.5327 19.9437H25.9246V4.64527H25.9809L31.0203 19.9324H34.3987L39.607 4.64527H39.6633V19.9324H44.0552V0H37.4392L32.8221 13.0068H32.7658L28.1768 0H21.5327V19.9437ZM50.2151 0.0675676H56.803C58.3367 0.0699248 59.8645 0.259004 61.3525 0.630631C62.7076 0.95211 63.9846 1.54179 65.1081 2.36486C66.1948 3.18191 67.0695 4.24779 67.6588 5.47297C68.325 6.92857 68.6468 8.51814 68.5991 10.1182C68.6296 11.5924 68.3174 13.0534 67.687 14.3863C67.1 15.5857 66.2583 16.6425 65.2207 17.4831C64.1587 18.3346 62.9457 18.9784 61.6453 19.3806C60.2708 19.8171 58.8363 20.0356 57.3942 20.0282H50.2151V0.0675676ZM54.607 15.9459H56.8593C57.8065 15.9524 58.7514 15.8485 59.6746 15.6363C60.4984 15.4691 61.2775 15.1294 61.9606 14.6396C62.6127 14.1462 63.1313 13.4979 63.4696 12.7534C63.865 11.8528 64.0572 10.8762 64.0327 9.89302C64.0494 9.01203 63.8564 8.13969 63.4696 7.34797C63.1185 6.64637 62.612 6.03402 61.9888 5.55743C61.3411 5.07639 60.6099 4.7194 59.8322 4.5045C58.9745 4.26468 58.0877 4.14529 57.1971 4.14977H54.607V15.9459ZM74.9617 0.0675676H82.3942C83.2665 0.0679928 84.1376 0.130085 85.0012 0.253378C85.8203 0.359494 86.6148 0.607174 87.3491 0.98536C88.0351 1.34129 88.6171 1.86896 89.0383 2.51689C89.5055 3.30754 89.7307 4.21785 89.6858 5.13513C89.7244 6.15659 89.3902 7.15721 88.7455 7.95045C88.0875 8.71259 87.2202 9.26471 86.2512 9.53829V9.57207C86.8747 9.66109 87.4795 9.85128 88.0417 10.1351C88.5609 10.3959 89.0283 10.7488 89.4212 11.1768C89.8103 11.6054 90.1108 12.1068 90.3052 12.652C90.5149 13.2294 90.6198 13.8396 90.6149 14.4538C90.6487 15.379 90.414 16.2942 89.9392 17.089C89.4975 17.7808 88.8997 18.3593 88.1937 18.7782C87.4516 19.2236 86.6383 19.5379 85.7894 19.7072C84.9141 19.8949 84.0214 19.9893 83.1262 19.9887H74.9617V0.0675676ZM79.3536 8.03491H82.5349C82.8723 8.03675 83.2087 7.99895 83.5372 7.9223C83.8514 7.85407 84.1507 7.73012 84.4212 7.55631C84.6851 7.38615 84.9035 7.15422 85.0575 6.88063C85.2224 6.56886 85.3039 6.2197 85.2939 5.86712C85.312 5.50877 85.226 5.15285 85.0462 4.84234C84.8715 4.57628 84.6335 4.35767 84.3536 4.20608C84.0399 4.04855 83.7037 3.94029 83.357 3.88513C83.0137 3.81876 82.665 3.78482 82.3153 3.78378H79.3311L79.3536 8.03491ZM79.3536 16.2838H83.2951C83.6417 16.2847 83.9873 16.2469 84.3255 16.1712C84.6616 16.1024 84.9811 15.9685 85.2658 15.777C85.5499 15.5895 85.7869 15.3391 85.9584 15.045C86.1433 14.7094 86.2347 14.3302 86.223 13.9471C86.238 13.5429 86.1149 13.1457 85.8739 12.8209C85.6375 12.5287 85.3316 12.3003 84.9843 12.1565C84.6235 12.0062 84.2451 11.9022 83.8581 11.8468C83.4757 11.7925 83.0901 11.7643 82.7039 11.7624H79.3818L79.3536 16.2838Z" fill="url(#paint0_linear_22_451)"/>
<defs>
<linearGradient id="paint0_linear_22_451" x1="0.0236816" y1="10" x2="153.976" y2="10" gradientUnits="userSpaceOnUse">
<stop stop-color="#90CEA1"/>
<stop offset="0.56" stop-color="#3CBEC9"/>
<stop offset="1" stop-color="#00B3E5"/>
</linearGradient>
</defs>
</svg>
